<svg width="65" height="64" viewBox="0 0 65 64" fill="none" xmlns="http://www.w3.org/2000/svg">
    <path d="M32.0203 55.4549L39.3614 37.0381L50.8581 34.8109C55.7853 33.8564 59.4158 30.6039 59.7614 27.9877C58.4647 25.6897 53.8832 24.028 48.9561 24.9826L37.4593 27.2098L23.7779 12.8655C22.9308 12.01 21.8819 11.8733 20.9599 12.3918L19.7094 12.9739C18.6548 13.6881 18.1881 14.7982 18.5742 15.913L24.3202 29.7551L16.4253 32.984L10.5471 29.0244L7.26231 29.6607L10.4898 37.5328L10.4324 46.0413L13.7172 45.4049L17.6933 39.5363L26.2223 39.5834L26.0557 54.571C26.1134 55.7495 26.9605 56.605 28.2053 56.8737L29.4501 57.1424C30.6315 57.0835 31.5535 56.565 32.0203 55.4549Z" fill="white" stroke="black" stroke-width="4" stroke-linecap="round" stroke-linejoin="round" />
</svg>