<svg width="53" height="45" viewBox="0 0 53 45" fill="none" xmlns="http://www.w3.org/2000/svg">
    <path d="M35.1282 39.2266L34.8842 19.4021L44.6605 12.9554C48.8503 10.1925 50.9645 5.80052 50.2854 3.25048C48.2098 1.6214 43.3409 1.83423 39.1511 4.5971L29.3748 11.0438L11.2542 3.00752C10.1446 2.54007 9.12302 2.81404 8.46871 3.64522L7.53507 4.6606C6.83291 5.72318 6.82521 6.92739 7.60763 7.81042L18.202 18.4115L12.1371 24.4093L5.19263 22.993L2.39942 24.835L8.38718 30.8792L11.5817 38.7654L14.3749 36.9235L15.8101 29.9815L23.7113 26.7697L29.2779 40.6862C29.781 41.7534 30.8906 42.2209 32.1437 41.9941L33.3968 41.7674C34.4662 41.262 35.1205 40.4308 35.1282 39.2266Z" fill="white" stroke="black" stroke-width="4" stroke-linecap="round" stroke-linejoin="round" />
</svg>