<svg width="65" height="64" viewBox="0 0 65 64" fill="none" xmlns="http://www.w3.org/2000/svg">
    <g clip-path="url(#clip0_2076_1794)">
        <path d="M27.0933 55.2392L38.3774 38.9376L50.0808 39.3452C55.0965 39.5199 59.3639 37.1643 60.2874 34.6923C59.539 32.1621 55.4468 29.5154 50.4311 29.3407L38.7277 28.9331L28.6113 11.8862C27.9776 10.8624 26.9861 10.494 25.9713 10.7926L24.6221 11.0795C23.4342 11.5389 22.7305 12.5161 22.8568 13.6891L25.3524 28.4673L16.9345 29.8436L12.0939 24.6666L8.75009 24.5501L10.1301 32.9455L8.16625 41.2244L11.5101 41.3408L16.701 36.5133L25.0021 38.4718L21.4789 53.0403C21.2708 54.2017 21.9046 55.2255 23.0574 55.7664L24.2102 56.3074C25.3747 56.5149 26.3895 56.2164 27.0933 55.2392Z" fill="white" stroke="black" stroke-width="4" stroke-linecap="round" stroke-linejoin="round" />
    </g>
    <defs>
        <clipPath id="clip0_2076_1794">
            <rect width="64.1722" height="64" fill="white" transform="translate(0.0986328)" />
        </clipPath>
    </defs>
</svg>