<svg width="20" height="20" viewBox="0 0 20 20" fill="none" xmlns="http://www.w3.org/2000/svg">
    <path d="M9.99902 3C11.8551 3.00204 13.6348 3.74032 14.9473 5.05273C16.1776 6.28308 16.9036 7.92377 16.9912 9.65332L17 10.001C16.9998 11.2987 16.6388 12.5689 15.96 13.6709L15.8203 13.8887C15.0992 14.9679 14.093 15.8239 12.916 16.3633L12.6787 16.4668C11.4796 16.9635 10.1678 17.1165 8.88965 16.9111L8.63477 16.8652C7.36192 16.612 6.18589 16.0106 5.2373 15.1299L5.0498 14.9502C4.13206 14.0325 3.48885 12.8785 3.18945 11.6191L3.13477 11.3652C2.88163 10.0923 2.98768 8.77596 3.43848 7.5625L3.5332 7.32129C4.0299 6.12219 4.84945 5.08668 5.89844 4.32812L6.11133 4.17969C7.26215 3.4108 8.61499 3.00019 9.99902 3ZM12.252 7.25879C11.9653 7.2563 11.6876 7.35287 11.4648 7.5293L11.3721 7.61035L9.25 9.73242L8.62793 9.11035L8.53516 9.0293C8.31237 8.85287 8.03466 8.7563 7.74805 8.75879C7.46139 8.76135 7.18549 8.86258 6.96582 9.04297L6.875 9.125C6.67228 9.32772 6.5469 9.59335 6.5166 9.87598L6.50879 9.99805C6.5063 10.2847 6.60287 10.5624 6.7793 10.7852L6.86035 10.8779L8.36621 12.3838C8.60062 12.6181 8.91854 12.75 9.25 12.75C9.54002 12.75 9.81958 12.649 10.042 12.4668L10.1338 12.3838L13.1396 9.37793C13.3673 9.14218 13.4941 8.82579 13.4912 8.49805C13.4887 8.21139 13.3874 7.93549 13.207 7.71582L13.125 7.625C12.8933 7.39331 12.5796 7.26172 12.252 7.25879Z" fill="#3282F7" stroke="#3282F7"/>
</svg>
