<svg width="33" height="32" viewBox="0 0 33 32" fill="none" xmlns="http://www.w3.org/2000/svg">
    <path d="M3.74854 18.27C4.16425 18.5019 4.6533 18.7083 5.20654 18.8892L5.5415 18.9927C7.28323 19.5099 9.55187 19.7928 11.9448 19.8032C11.8943 20.2023 11.8687 20.6059 11.8687 21.0132L11.8774 21.4253C11.9097 22.1904 12.0338 22.9416 12.2456 23.6704C12.1912 23.6707 12.1362 23.6733 12.0815 23.6733C9.6942 23.6733 7.54844 23.3852 6.01318 22.9302C5.24297 22.7019 4.64947 22.4387 4.2583 22.1646C3.8558 21.8825 3.74867 21.6499 3.74854 21.4956V18.27Z" fill="#3282F7" stroke="#3282F7" stroke-width="0.831169" />
    <path d="M14.955 14.5635C15.3124 14.206 15.6947 13.8819 16.0993 13.5938C14.8636 13.7766 13.4949 13.8736 12.082 13.8736C9.66603 13.8736 7.38585 13.591 5.65979 13.0784C4.77044 12.8152 4.05841 12.4994 3.54308 12.1364C3.46828 12.0838 3.39901 12.0312 3.33252 11.9785V15.9626C3.33252 16.0789 3.36023 16.1925 3.4101 16.3061C3.97806 17.5778 7.64352 18.5558 12.082 18.5558C12.262 18.5558 12.4421 18.553 12.6194 18.5503C12.7219 18.1818 12.8494 17.8161 13.0018 17.4614C13.1708 17.0597 13.3675 16.6746 13.5919 16.3061C13.9687 15.6772 14.4258 15.0926 14.955 14.5635Z" fill="#3282F7" />
    <path d="M12.082 8.68449C9.66603 8.68449 7.38585 8.4019 5.65979 7.88934C4.77044 7.62614 4.05841 7.31029 3.54308 6.94735C3.46828 6.89471 3.39901 6.84207 3.33252 6.78943V9.9451V10.3607V10.4493C3.33252 10.5602 3.35745 10.671 3.40178 10.7763C3.94481 12.0535 7.62412 13.0426 12.082 13.0426C16.5398 13.0426 20.2191 12.0535 20.7621 10.7763C20.8064 10.6682 20.8314 10.5602 20.8314 10.4493V10.3607V9.9451V6.78943C20.7649 6.84484 20.6956 6.89748 20.6208 6.94735C20.1055 7.30752 19.3934 7.62337 18.5041 7.88934C16.7781 8.4019 14.4979 8.68449 12.082 8.68449Z" fill="#3282F7" />
    <path d="M20.8314 5.25987C20.8314 5.11857 20.7926 4.98005 20.7178 4.84429C20.6402 4.70022 20.5239 4.56169 20.3715 4.4287C19.2023 3.4036 15.933 2.66663 12.082 2.66663C8.23087 2.66663 4.95881 3.4036 3.79243 4.4287C3.64005 4.56169 3.52369 4.70022 3.44611 4.84429C3.37131 4.98005 3.33252 5.11857 3.33252 5.25987C3.33252 6.69225 7.25009 7.85312 12.082 7.85312C16.9138 7.85312 20.8314 6.69225 20.8314 5.25987Z" fill="#3282F7" />
    <path d="M21.6628 12.6933C21.5769 12.6905 21.491 12.6877 21.4023 12.6877C21.3497 12.6877 21.2971 12.6877 21.2472 12.6905C21.1087 12.6933 20.9701 12.6988 20.8316 12.7071C18.219 12.8845 15.936 14.267 14.5369 16.3061C14.0742 16.9793 13.7057 17.7274 13.4564 18.5253C13.412 18.6638 13.3732 18.8051 13.3372 18.9464C13.3012 19.085 13.2707 19.2263 13.243 19.3648C13.135 19.8967 13.0796 20.4481 13.0796 21.0105C13.0796 22.0827 13.2818 23.1051 13.6503 24.0443C14.8638 27.139 17.8782 29.3333 21.4023 29.3333C25.9987 29.3333 29.7251 25.6069 29.7251 21.0105C29.7278 16.5028 26.14 12.8318 21.6628 12.6933ZM23.8404 25.0195C23.422 25.46 22.8513 25.7509 22.1975 25.8673V26.1998C22.1975 26.5046 21.9509 26.7511 21.6461 26.7511H21.3469C21.0421 26.7511 20.7956 26.5046 20.7956 26.1998V25.8535C20.4354 25.7842 20.0891 25.6679 19.7788 25.5099C19.4131 25.3215 19.0945 25.014 18.8285 24.5984C18.6512 24.3214 18.5237 24 18.4461 23.6398C18.4157 23.5041 18.4406 23.3683 18.5043 23.2575C18.5819 23.1189 18.7205 23.0164 18.8894 22.986L19.1859 22.9333C19.2468 22.9223 19.3078 22.9223 19.3632 22.9333C19.5765 22.9666 19.7566 23.1217 19.812 23.3406C19.8951 23.6703 20.0087 23.9252 20.15 24.1053C20.4659 24.5098 20.9867 24.7508 21.5436 24.7508C21.6378 24.7508 21.732 24.7425 21.8262 24.7286C22.2252 24.6677 22.5826 24.4793 22.8291 24.1967C23.0923 23.8975 23.2253 23.5207 23.2253 23.0774C23.2253 22.7034 23.1339 22.3986 22.951 22.1742C22.6158 21.7641 22.0423 21.5868 21.5242 21.4705C21.2832 21.4151 21.0532 21.3624 20.8261 21.2987C20.4493 21.1907 20.0863 21.0577 19.7233 20.8554C19.3493 20.6476 19.0584 20.3539 18.8562 19.9855C18.6567 19.6198 18.5542 19.1987 18.5542 18.7332C18.5542 18.6778 18.557 18.6251 18.557 18.5725C18.5653 18.4146 18.5847 18.2649 18.6124 18.1209C18.6484 17.9491 18.6983 17.7856 18.7648 17.6305C18.9116 17.287 19.136 16.9822 19.4325 16.7217C19.6264 16.5527 19.8591 16.4114 20.1223 16.3034C20.3274 16.2175 20.5518 16.1538 20.7873 16.1094V15.6606C20.7873 15.5941 20.8011 15.5276 20.8233 15.4694C20.8897 15.2893 21.0477 15.1563 21.2389 15.1203C21.2721 15.1148 21.3053 15.112 21.3386 15.112H21.6378C21.6434 15.112 21.6489 15.112 21.6545 15.112C21.9509 15.1203 22.1892 15.3641 22.1892 15.6606V16.1177C22.6851 16.2147 23.1257 16.4086 23.4581 16.6829C23.81 16.9738 24.0649 17.3423 24.2228 17.7856C24.3392 18.1097 24.1258 18.4616 23.785 18.5115L23.4941 18.5558C23.2309 18.5946 22.9761 18.4394 22.893 18.1901C22.8237 17.9851 22.7295 17.8161 22.6131 17.6858C22.3499 17.3922 21.9371 17.2232 21.48 17.2232C21.3414 17.2232 21.2057 17.2398 21.0755 17.2675C20.9896 17.2869 20.9065 17.3118 20.8261 17.3423C20.5989 17.431 20.3994 17.5612 20.2471 17.7302C20.175 17.8105 20.1168 17.8936 20.067 17.9823C19.9562 18.1818 19.9007 18.4034 19.9007 18.65C19.9007 18.9991 19.9977 19.2956 20.1917 19.5311C20.3634 19.7361 20.5795 19.8802 20.8233 19.9854C21.1558 20.1295 21.5326 20.2071 21.9038 20.2819C22.2779 20.3567 22.6657 20.4343 23.0038 20.5839C23.3612 20.7418 23.6604 20.9385 23.8876 21.1657C24.1175 21.3957 24.2948 21.6699 24.4195 21.9858C24.5414 22.2989 24.6052 22.6424 24.6052 23.0053C24.6079 23.806 24.3502 24.482 23.8404 25.0195Z" fill="#3282F7" />
</svg>