<svg width="32" height="32" viewBox="0 0 32 32" fill="none" xmlns="http://www.w3.org/2000/svg">
  <path d="M15.9995 3.16663C20.8686 3.16663 24.8333 7.1293 24.8335 11.9996V12.4996H25.3335C27.2624 12.4998 28.8333 14.0707 28.8335 15.9996V18.6666C28.8335 20.5957 27.2625 22.1664 25.3335 22.1666H24.7954L24.7183 22.5739C24.1871 25.3742 21.7267 27.4996 18.7769 27.4996H18.0083L17.8638 27.7477C17.4846 28.3979 16.7925 28.8336 15.9995 28.8336H14.6665C13.472 28.8336 12.4995 27.8612 12.4995 26.6666V25.3336C12.4995 24.1391 13.472 23.1666 14.6665 23.1666H15.9995C17.194 23.1666 18.1665 24.1391 18.1665 25.3336V25.8336H18.7769C21.1969 25.8336 23.1665 23.8656 23.1665 21.444V11.9996C23.1663 8.04764 19.9515 4.83362 15.9995 4.83362C12.0476 4.8338 8.83367 8.04775 8.8335 11.9996V21.3336C8.83332 21.7937 8.46027 22.1666 7.99951 22.1666H6.6665C4.73731 22.1666 3.1665 20.5958 3.1665 18.6666V15.9996C3.16668 14.0706 4.73742 12.4996 6.6665 12.4996H7.1665V11.9996C7.16668 7.12941 11.1305 3.1668 15.9995 3.16663ZM15.9995 7.16663C17.177 7.16663 18.2958 7.58793 19.1782 8.36096L19.3511 8.52014C19.6613 8.81947 19.6891 9.30217 19.4282 9.63342L19.3726 9.69788L19.3716 9.69885C19.073 10.009 18.5903 10.0374 18.2573 9.776L18.1929 9.71936C17.0012 8.57031 15.0113 8.58015 13.8169 9.70959L13.7036 9.8219V9.82288C13.5396 9.99609 13.3204 10.0826 13.0981 10.0826C12.9173 10.0826 12.7371 10.0243 12.5874 9.90784L12.5249 9.85413C12.2127 9.55692 12.1814 9.07396 12.439 8.74084L12.4946 8.67639V8.67542C13.4029 7.71644 14.6812 7.16672 15.9995 7.16663Z" fill="#3282F7" stroke="#3282F7" />
</svg>