<svg width="33" height="32" viewBox="0 0 33 32" fill="none" xmlns="http://www.w3.org/2000/svg">
    <path d="M5.6665 5.83337H26.9995C27.5022 5.83337 27.9871 6.00785 28.3726 6.32361L28.5317 6.46814C28.938 6.87445 29.1665 7.42581 29.1665 8.00037V24.0004C29.1664 24.5032 28.9913 24.9879 28.6753 25.3734L28.5317 25.5316C28.1254 25.9379 27.5741 26.1664 26.9995 26.1664H5.6665C5.16383 26.1664 4.67896 25.9919 4.29346 25.6761L4.13428 25.5316C3.72813 25.1254 3.4996 24.5748 3.49951 24.0004V8.00037L3.51025 7.78552C3.55251 7.36072 3.71928 6.9576 3.98975 6.62732L4.13428 6.46814C4.48972 6.11269 4.9558 5.89344 5.45166 5.84412L5.6665 5.83337ZM11.6597 17.5951C10.5546 17.6095 9.48646 17.9842 8.6167 18.6595L8.4458 18.7982C7.55205 19.5567 6.94897 20.6015 6.73877 21.7543L6.53369 22.5726L6.37646 23.1967L7.02002 23.1947L16.3091 23.1644L16.9507 23.1615L16.7915 22.5404L16.5835 21.7299C16.3821 20.6542 15.8397 19.674 15.0376 18.9349L14.8726 18.7904C13.9765 18.0338 12.846 17.6113 11.6733 17.5951L11.6665 18.0834L11.6733 17.5941L11.6597 17.5951ZM20.3325 18.1664C19.9074 18.1665 19.4975 18.3144 19.1714 18.5814L19.0366 18.7035C18.6928 19.0473 18.4995 19.5141 18.4995 20.0004C18.4996 20.4256 18.6475 20.8354 18.9146 21.1615L19.0366 21.2963C19.3804 21.64 19.8464 21.8333 20.3325 21.8334H24.3325C24.8187 21.8334 25.2856 21.6401 25.6294 21.2963C25.973 20.9525 26.1664 20.4864 26.1665 20.0004C26.1665 19.5141 25.9732 19.0473 25.6294 18.7035C25.2856 18.3597 24.8187 18.1664 24.3325 18.1664H20.3325ZM20.3325 14.1664C19.9074 14.1665 19.4975 14.3144 19.1714 14.5814L19.0366 14.7035C18.6928 15.0473 18.4995 15.5141 18.4995 16.0004C18.4996 16.4256 18.6475 16.8354 18.9146 17.1615L19.0366 17.2963C19.3804 17.64 19.8464 17.8333 20.3325 17.8334H24.3325C24.7579 17.8334 25.1684 17.6856 25.4946 17.4183L25.6294 17.2963C25.973 16.9525 26.1664 16.4864 26.1665 16.0004C26.1665 15.575 26.0186 15.1644 25.7515 14.8383L25.6294 14.7035C25.2856 14.3597 24.8187 14.1664 24.3325 14.1664H20.3325ZM11.6665 8.83337C10.7135 8.83337 9.79643 9.18797 9.09326 9.82458L8.95557 9.95642C8.23686 10.6752 7.83261 11.6499 7.83252 12.6664C7.83252 13.3299 8.00528 13.9805 8.33057 14.5551L8.479 14.7963C8.84764 15.348 9.35214 15.7932 9.94189 16.0902L10.1997 16.2084C10.8125 16.4621 11.4791 16.5517 12.1343 16.4711L12.4136 16.4261C13.1571 16.2783 13.8404 15.9133 14.3765 15.3773C14.8454 14.9084 15.1835 14.3268 15.3599 13.6908L15.4263 13.4144C15.5557 12.7637 15.5131 12.0922 15.3062 11.4652L15.2075 11.1996C14.9537 10.5869 14.546 10.0521 14.0259 9.64587L13.7954 9.47986C13.1651 9.05875 12.4245 8.83344 11.6665 8.83337ZM20.3325 10.1664C19.9074 10.1665 19.4975 10.3144 19.1714 10.5814L19.0366 10.7035C18.6928 11.0473 18.4995 11.5141 18.4995 12.0004C18.4996 12.4256 18.6475 12.8354 18.9146 13.1615L19.0366 13.2963C19.3804 13.64 19.8464 13.8333 20.3325 13.8334H24.3325C24.7579 13.8334 25.1684 13.6856 25.4946 13.4183L25.6294 13.2963C25.973 12.9525 26.1664 12.4864 26.1665 12.0004C26.1665 11.575 26.0186 11.1644 25.7515 10.8383L25.6294 10.7035C25.2856 10.3597 24.8187 10.1664 24.3325 10.1664H20.3325Z" fill="#3282F7" stroke="#3282F7" />
</svg>